<?xml version="1.0" encoding="UTF-8" standalone="no"?>
<!-- Created with Inkscape (http://www.inkscape.org/) -->

<svg
   xmlns:dc="http://purl.org/dc/elements/1.1/"
   xmlns:cc="http://creativecommons.org/ns#"
   xmlns:rdf="http://www.w3.org/1999/02/22-rdf-syntax-ns#"
   xmlns:svg="http://www.w3.org/2000/svg"
   xmlns="http://www.w3.org/2000/svg"
   xmlns:sodipodi="http://sodipodi.sourceforge.net/DTD/sodipodi-0.dtd"
   xmlns:inkscape="http://www.inkscape.org/namespaces/inkscape"
   version="1.1"
   width="5in"
   height="8in"
   id="svg2"
   inkscape:version="0.48.4 r9939"
   sodipodi:docname="binding.svg">
  <sodipodi:namedview
     pagecolor="#ffffff"
     bordercolor="#666666"
     borderopacity="1"
     objecttolerance="10"
     gridtolerance="10"
     guidetolerance="10"
     inkscape:pageopacity="0"
     inkscape:pageshadow="2"
     inkscape:window-width="1024"
     inkscape:window-height="1044"
     id="namedview123"
     showgrid="false"
     inkscape:zoom="1.3111111"
     inkscape:cx="47.927885"
     inkscape:cy="354.43347"
     inkscape:window-x="650"
     inkscape:window-y="0"
     inkscape:window-maximized="0"
     inkscape:current-layer="svg2"
     units="in" />
  <defs
     id="defs4">
    <marker
       refX="0"
       refY="0"
       orient="auto"
       id="InfiniteLineEnd"
       style="overflow:visible">
      <g
         id="g4095"
         style="fill:#000000">
        <circle
           cx="3"
           cy="0"
           r="0.80000001"
           id="circle4097"
           sodipodi:cx="3"
           sodipodi:cy="0"
           sodipodi:rx="0.80000001"
           sodipodi:ry="0.80000001" />
        <circle
           cx="6.5"
           cy="0"
           r="0.80000001"
           id="circle4099"
           sodipodi:cx="6.5"
           sodipodi:cy="0"
           sodipodi:rx="0.80000001"
           sodipodi:ry="0.80000001" />
        <circle
           cx="10"
           cy="0"
           r="0.80000001"
           id="circle4101"
           sodipodi:cx="10"
           sodipodi:cy="0"
           sodipodi:rx="0.80000001"
           sodipodi:ry="0.80000001" />
      </g>
    </marker>
    <marker
       refX="0"
       refY="0"
       orient="auto"
       id="Arrow1Mend"
       style="overflow:visible">
      <path
         d="M 0,0 5,-5 -12.5,0 5,5 0,0 z"
         transform="matrix(-0.4,0,0,-0.4,-4,0)"
         id="path3869"
         style="fill-rule:evenodd;stroke:#000000;stroke-width:1pt"
         inkscape:connector-curvature="0" />
    </marker>
    <marker
       refX="0"
       refY="0"
       orient="auto"
       id="Arrow1Mstart"
       style="overflow:visible">
      <path
         d="M 0,0 5,-5 -12.5,0 5,5 0,0 z"
         transform="matrix(0.4,0,0,0.4,4,0)"
         id="path3866"
         style="fill-rule:evenodd;stroke:#000000;stroke-width:1pt"
         inkscape:connector-curvature="0" />
    </marker>
    <marker
       refX="0"
       refY="0"
       orient="auto"
       id="Arrow1Mend-6"
       style="overflow:visible">
      <path
         d="M 0,0 5,-5 -12.5,0 5,5 0,0 z"
         transform="matrix(-0.4,0,0,-0.4,-4,0)"
         id="path3869-1"
         style="fill-rule:evenodd;stroke:#000000;stroke-width:1pt"
         inkscape:connector-curvature="0" />
    </marker>
    <marker
       refX="0"
       refY="0"
       orient="auto"
       id="Arrow1Mstart-6"
       style="overflow:visible">
      <path
         d="M 0,0 5,-5 -12.5,0 5,5 0,0 z"
         transform="matrix(0.4,0,0,0.4,4,0)"
         id="path3866-2"
         style="fill-rule:evenodd;stroke:#000000;stroke-width:1pt"
         inkscape:connector-curvature="0" />
    </marker>
    <marker
       refX="0"
       refY="0"
       orient="auto"
       id="marker6389"
       style="overflow:visible">
      <path
         d="M 0,0 5,-5 -12.5,0 5,5 0,0 z"
         transform="matrix(-0.4,0,0,-0.4,-4,0)"
         id="path6391"
         style="fill-rule:evenodd;stroke:#000000;stroke-width:1pt"
         inkscape:connector-curvature="0" />
    </marker>
    <marker
       refX="0"
       refY="0"
       orient="auto"
       id="Arrow1Mend-2"
       style="overflow:visible">
      <path
         d="M 0,0 5,-5 -12.5,0 5,5 0,0 z"
         transform="matrix(-0.4,0,0,-0.4,-4,0)"
         id="path3869-9"
         style="fill-rule:evenodd;stroke:#000000;stroke-width:1pt"
         inkscape:connector-curvature="0" />
    </marker>
    <marker
       refX="0"
       refY="0"
       orient="auto"
       id="Arrow1Mend-8"
       style="overflow:visible">
      <path
         d="M 0,0 5,-5 -12.5,0 5,5 0,0 z"
         transform="matrix(-0.4,0,0,-0.4,-4,0)"
         id="path3869-4"
         style="fill-rule:evenodd;stroke:#000000;stroke-width:1pt"
         inkscape:connector-curvature="0" />
    </marker>
    <marker
       refX="0"
       refY="0"
       orient="auto"
       id="Arrow1Mend-4"
       style="overflow:visible">
      <path
         d="M 0,0 5,-5 -12.5,0 5,5 0,0 z"
         transform="matrix(-0.4,0,0,-0.4,-4,0)"
         id="path3869-6"
         style="fill-rule:evenodd;stroke:#000000;stroke-width:1pt"
         inkscape:connector-curvature="0" />
    </marker>
    <marker
       refX="0"
       refY="0"
       orient="auto"
       id="Arrow1Mstart-1"
       style="overflow:visible">
      <path
         d="M 0,0 5,-5 -12.5,0 5,5 0,0 z"
         transform="matrix(0.4,0,0,0.4,4,0)"
         id="path3866-4"
         style="fill-rule:evenodd;stroke:#000000;stroke-width:1pt"
         inkscape:connector-curvature="0" />
    </marker>
    <marker
       refX="0"
       refY="0"
       orient="auto"
       id="marker7049"
       style="overflow:visible">
      <path
         d="M 0,0 5,-5 -12.5,0 5,5 0,0 z"
         transform="matrix(-0.4,0,0,-0.4,-4,0)"
         id="path7051"
         style="fill-rule:evenodd;stroke:#000000;stroke-width:1pt"
         inkscape:connector-curvature="0" />
    </marker>
    <marker
       refX="0"
       refY="0"
       orient="auto"
       id="Arrow1Mend-0"
       style="overflow:visible">
      <path
         d="M 0,0 5,-5 -12.5,0 5,5 0,0 z"
         transform="matrix(-0.4,0,0,-0.4,-4,0)"
         id="path3869-5"
         style="fill-rule:evenodd;stroke:#000000;stroke-width:1pt"
         inkscape:connector-curvature="0" />
    </marker>
    <marker
       refX="0"
       refY="0"
       orient="auto"
       id="Arrow1Mend-3"
       style="overflow:visible">
      <path
         d="M 0,0 5,-5 -12.5,0 5,5 0,0 z"
         transform="matrix(-0.4,0,0,-0.4,-4,0)"
         id="path3869-67"
         style="fill-rule:evenodd;stroke:#000000;stroke-width:1pt"
         inkscape:connector-curvature="0" />
    </marker>
    <marker
       refX="0"
       refY="0"
       orient="auto"
       id="Arrow1Mend-3-7"
       style="overflow:visible">
      <path
         d="M 0,0 5,-5 -12.5,0 5,5 0,0 z"
         transform="matrix(-0.4,0,0,-0.4,-4,0)"
         id="path3869-67-9"
         style="fill-rule:evenodd;stroke:#000000;stroke-width:1pt"
         inkscape:connector-curvature="0" />
    </marker>
    <marker
       refX="0"
       refY="0"
       orient="auto"
       id="marker8821"
       style="overflow:visible">
      <path
         d="M 0,0 5,-5 -12.5,0 5,5 0,0 z"
         transform="matrix(-0.4,0,0,-0.4,-4,0)"
         id="path8823"
         style="fill-rule:evenodd;stroke:#000000;stroke-width:1pt"
         inkscape:connector-curvature="0" />
    </marker>
    <marker
       refX="0"
       refY="0"
       orient="auto"
       id="Arrow1Mend-3-8"
       style="overflow:visible">
      <path
         d="M 0,0 5,-5 -12.5,0 5,5 0,0 z"
         transform="matrix(-0.4,0,0,-0.4,-4,0)"
         id="path3869-67-1"
         style="fill-rule:evenodd;stroke:#000000;stroke-width:1pt"
         inkscape:connector-curvature="0" />
    </marker>
    <marker
       refX="0"
       refY="0"
       orient="auto"
       id="marker8951"
       style="overflow:visible">
      <path
         d="M 0,0 5,-5 -12.5,0 5,5 0,0 z"
         transform="matrix(-0.4,0,0,-0.4,-4,0)"
         id="path8953"
         style="fill-rule:evenodd;stroke:#000000;stroke-width:1pt"
         inkscape:connector-curvature="0" />
    </marker>
    <marker
       refX="0"
       refY="0"
       orient="auto"
       id="Arrow1Mend-3-3"
       style="overflow:visible">
      <path
         d="M 0,0 5,-5 -12.5,0 5,5 0,0 z"
         transform="matrix(-0.4,0,0,-0.4,-4,0)"
         id="path3869-67-6"
         style="fill-rule:evenodd;stroke:#000000;stroke-width:1pt"
         inkscape:connector-curvature="0" />
    </marker>
    <marker
       refX="0"
       refY="0"
       orient="auto"
       id="marker9056"
       style="overflow:visible">
      <path
         d="M 0,0 5,-5 -12.5,0 5,5 0,0 z"
         transform="matrix(-0.4,0,0,-0.4,-4,0)"
         id="path9058"
         style="fill-rule:evenodd;stroke:#000000;stroke-width:1pt"
         inkscape:connector-curvature="0" />
    </marker>
    <marker
       refX="0"
       refY="0"
       orient="auto"
       id="marker9060"
       style="overflow:visible">
      <path
         d="M 0,0 5,-5 -12.5,0 5,5 0,0 z"
         transform="matrix(-0.4,0,0,-0.4,-4,0)"
         id="path9062"
         style="fill-rule:evenodd;stroke:#000000;stroke-width:1pt"
         inkscape:connector-curvature="0" />
    </marker>
    <marker
       refX="0"
       refY="0"
       orient="auto"
       id="marker9064"
       style="overflow:visible">
      <path
         d="M 0,0 5,-5 -12.5,0 5,5 0,0 z"
         transform="matrix(-0.4,0,0,-0.4,-4,0)"
         id="path9066"
         style="fill-rule:evenodd;stroke:#000000;stroke-width:1pt"
         inkscape:connector-curvature="0" />
    </marker>
    <marker
       refX="0"
       refY="0"
       orient="auto"
       id="marker9068"
       style="overflow:visible">
      <path
         d="M 0,0 5,-5 -12.5,0 5,5 0,0 z"
         transform="matrix(-0.4,0,0,-0.4,-4,0)"
         id="path9070"
         style="fill-rule:evenodd;stroke:#000000;stroke-width:1pt"
         inkscape:connector-curvature="0" />
    </marker>
    <marker
       refX="0"
       refY="0"
       orient="auto"
       id="Arrow1Mend-9"
       style="overflow:visible">
      <path
         d="M 0,0 5,-5 -12.5,0 5,5 0,0 z"
         transform="matrix(-0.4,0,0,-0.4,-4,0)"
         id="path3869-8"
         style="fill-rule:evenodd;stroke:#000000;stroke-width:1pt"
         inkscape:connector-curvature="0" />
    </marker>
    <marker
       refX="0"
       refY="0"
       orient="auto"
       id="Arrow1Mend-48"
       style="overflow:visible">
      <path
         d="M 0,0 5,-5 -12.5,0 5,5 0,0 z"
         transform="matrix(-0.4,0,0,-0.4,-4,0)"
         id="path3869-43"
         style="fill-rule:evenodd;stroke:#000000;stroke-width:1pt"
         inkscape:connector-curvature="0" />
    </marker>
    <marker
       refX="0"
       refY="0"
       orient="auto"
       id="Arrow1Mend-485"
       style="overflow:visible">
      <path
         d="M 0,0 5,-5 -12.5,0 5,5 0,0 z"
         transform="matrix(-0.4,0,0,-0.4,-4,0)"
         id="path3869-3"
         style="fill-rule:evenodd;stroke:#000000;stroke-width:1pt"
         inkscape:connector-curvature="0" />
    </marker>
  </defs>
  <metadata
     id="metadata7">
    <rdf:RDF>
      <cc:Work
         rdf:about="">
        <dc:format>image/svg+xml</dc:format>
        <dc:type
           rdf:resource="http://purl.org/dc/dcmitype/StillImage" />
        <dc:title />
      </cc:Work>
    </rdf:RDF>
  </metadata>
  <text
     sodipodi:linespacing="125%"
     style="font-size:40px;font-style:normal;font-variant:normal;font-weight:normal;font-stretch:normal;line-height:125%;letter-spacing:0px;word-spacing:0px;fill:#000000;fill-opacity:1;stroke:none;font-family:cmsy10;-inkscape-font-specification:cmsy10"
     xml:space="preserve"
     id="text6917"
     y="839.1875"
     x="-172.60934"><tspan
       id="tspan6919"
       y="839.1875"
       x="-172.60934" /></text>
  <g
     id="g3061">
    <path
       style="font-size:medium;font-style:normal;font-variant:normal;font-weight:normal;font-stretch:normal;text-indent:0;text-align:start;text-decoration:none;line-height:normal;letter-spacing:normal;word-spacing:normal;text-transform:none;direction:ltr;block-progression:tb;writing-mode:lr-tb;text-anchor:start;baseline-shift:baseline;color:#000000;fill:#000000;fill-opacity:1;stroke:none;stroke-width:2.94849563;marker:none;visibility:visible;display:inline;overflow:visible;enable-background:accumulate;font-family:Sans;-inkscape-font-specification:Sans"
       d="m 61.875,215.21875 0,453.96875 0,1.46875 1.46875,0 357.8125,0 0,-2.9375 -356.34375,0 0,-452.5 -2.9375,0 z"
       id="path6396"
       inkscape:connector-curvature="0" />
    <path
       inkscape:connector-curvature="0"
       style="fill-rule:evenodd;stroke:#000000;stroke-width:1.17939825pt"
       id="path3067"
       d="m 63.33481,227.01798 5.896991,5.89699 -5.896991,-20.63947 -5.896991,20.63947 5.896991,-5.89699 z" />
    <path
       inkscape:connector-curvature="0"
       style="fill-rule:evenodd;stroke:#000000;stroke-width:1.17939825pt"
       id="path3069"
       d="m 409.35779,669.195 -5.89699,5.89699 20.63947,-5.89699 -20.63947,-5.89699 5.89699,5.89699 z" />
  </g>
  <text
     sodipodi:linespacing="125%"
     style="font-size:78.62654114px;font-style:normal;font-variant:normal;font-weight:normal;font-stretch:normal;line-height:125%;letter-spacing:0px;word-spacing:0px;fill:#000000;fill-opacity:1;stroke:none;font-family:DejaVu Sans;-inkscape-font-specification:DejaVu Sans"
     xml:space="preserve"
     id="text5616-6"
     transform="matrix(0,-1,1,0,0,0)"
     y="44.167568"
     x="-571.97656"><tspan
       style="font-size:32px;font-style:normal;font-variant:normal;font-weight:normal;font-stretch:normal;letter-spacing:-0.5px;font-family:DejaVu Sans;-inkscape-font-specification:DejaVu Sans"
       id="tspan5618-5"
       y="44.167568"
       x="-571.97656">Free Energy</tspan></text>
  <text
     sodipodi:linespacing="125%"
     style="font-size:78.62654114px;font-style:normal;font-variant:normal;font-weight:normal;font-stretch:normal;text-align:center;line-height:125%;letter-spacing:0px;word-spacing:0px;text-anchor:middle;fill:#000000;fill-opacity:1;stroke:none;font-family:cmsy10;-inkscape-font-specification:cmsy10"
     xml:space="preserve"
     id="text5616-5-5"
     y="707.46875"
     x="240.65967"><tspan
       style="font-size:32px;font-style:normal;font-variant:normal;font-weight:normal;font-stretch:normal;text-align:center;letter-spacing:-0.5px;text-anchor:middle;font-family:DejaVu Sans;-inkscape-font-specification:DejaVu Sans"
       id="tspan5618-7-2"
       y="707.46875"
       x="240.40967">Conformations</tspan></text>
  <text
     sodipodi:linespacing="125%"
     style="font-size:40px;font-style:normal;font-variant:normal;font-weight:normal;font-stretch:normal;line-height:125%;letter-spacing:0px;word-spacing:0px;fill:#000000;fill-opacity:1;stroke:none;font-family:cmsy10;-inkscape-font-specification:cmsy10"
     xml:space="preserve"
     id="text9191"
     y="1222.5312"
     x="-16.444248"><tspan
       id="tspan9193"
       y="1222.5312"
       x="-16.444248" /></text>
  <path
     inkscape:connector-curvature="0"
     style="fill:none;stroke:#000000;stroke-width:2.94849539;stroke-linecap:butt;stroke-linejoin:miter;stroke-miterlimit:4;stroke-opacity:1;stroke-dasharray:none"
     id="path5651-1-3"
     d="m 207.63072,651.022 0,18.265" />
  <path
     inkscape:connector-curvature="0"
     style="fill:none;stroke:#000000;stroke-width:2.94849539;stroke-linecap:butt;stroke-linejoin:miter;stroke-miterlimit:4;stroke-opacity:1;stroke-dasharray:none"
     id="path5651-1-0-4"
     d="m 276.32264,651.022 0,18.265" />
  <path
     inkscape:connector-curvature="0"
     style="fill:none;stroke:#000000;stroke-width:2.94849539;stroke-linecap:butt;stroke-linejoin:miter;stroke-miterlimit:4;stroke-opacity:1;stroke-dasharray:none"
     id="path5651-1-7-7"
     d="m 138.9388,651.022 0,18.265" />
  <path
     inkscape:connector-curvature="0"
     style="fill:none;stroke:#000000;stroke-width:2.94849539;stroke-linecap:butt;stroke-linejoin:miter;stroke-miterlimit:4;stroke-opacity:1;stroke-dasharray:none"
     id="path5651-1-9-7"
     d="m 345.01456,651.022 0,18.265" />
  <path
     inkscape:connector-curvature="0"
     style="fill:none;stroke:#666699;stroke-width:3.9313271;stroke-linecap:butt;stroke-linejoin:miter;stroke-miterlimit:4;stroke-opacity:1;stroke-dasharray:none;marker-start:none"
     id="path6461"
     d="m 108.53014,252.657 c 3.07927,60.06 11.02663,239.053 30.28089,239.053 19.25427,0 17.38295,-71.582 33.87328,-71.582 19.72148,0 18.84348,198.897 34.74931,198.897 16.71363,0 13.02993,-225.654 41.52512,-225.654 15.60218,0 14.83832,50.138 27.41007,50.138 12.57176,0 12.03372,-63.155 34.6636,-63.155 19.39872,0 19.73866,126.632 34.081,126.632 14.34235,0 18.52206,-169.958 23.04206,-254.329" />
  <rect
     style="fill:#eaeae5;fill-opacity:1;stroke:none"
     id="rect6340-2"
     y="0"
     x="1.2427978e-07"
     height="150"
     width="450" />
  <path
     inkscape:connector-curvature="0"
     style="fill:#cc6600;stroke:none"
     id="path6459-7"
     d="m 370.81811,21.041 c -29.80118,0 -53.9598,24.158 -53.9598,53.96 0,29.801 24.15862,53.959 53.9598,53.959 14.90057,0 28.38176,-6.048 38.14658,-15.813 L 370.81811,75.001 408.96469,36.854 C 399.19987,27.089 385.71868,21.041 370.81811,21.041 z m 53.43518,46.315 c 0.11871,0.831 0.21992,1.638 0.29978,2.473 -0.0787,-0.829 -0.18418,-1.654 -0.29978,-2.473 z m 0.29978,12.816 c -0.0799,0.835 -0.18107,1.642 -0.29978,2.473 0.11554,-0.818 0.22112,-1.644 0.29978,-2.473 z m -0.74944,5.096 c -0.16453,0.85 -0.31883,1.705 -0.52461,2.548 0.20481,-0.84 0.35971,-1.693 0.52461,-2.548 z" />
  <path
     inkscape:connector-curvature="0"
     style="fill:#990000;stroke:none"
     id="rect6565"
     d="m 412.61088,40.846 -34.18082,34.181 34.12784,34.128 c 16.25783,-19.823 16.31107,-48.486 0.053,-68.309 z" />
  <g
     id="g3071">
    <path
       style="font-size:medium;font-style:normal;font-variant:normal;font-weight:normal;font-stretch:normal;text-indent:0;text-align:start;text-decoration:none;line-height:normal;letter-spacing:normal;word-spacing:normal;text-transform:none;direction:ltr;block-progression:tb;writing-mode:lr-tb;text-anchor:start;baseline-shift:baseline;color:#000000;fill:#000000;fill-opacity:1;stroke:none;stroke-width:2.94849539;marker:none;visibility:visible;display:inline;overflow:visible;enable-background:accumulate;font-family:Sans;-inkscape-font-specification:Sans"
       d="m 228.9375,73.53125 0,2.9375 58.0625,0 0,-2.9375 -58.0625,0 z"
       id="path5954-5-9"
       inkscape:connector-curvature="0" />
    <path
       inkscape:connector-curvature="0"
       style="fill-rule:evenodd;stroke:#000000;stroke-width:1.17939816pt"
       id="path3077"
       d="M 275.20464,75.001 269.30765,80.897991 289.94712,75.001 269.30765,69.104009 275.20464,75.001 z" />
  </g>
  <path
     inkscape:connector-curvature="0"
     style="fill:#990000;stroke:none"
     id="rect6565-5"
     d="m 189.59469,40.846 -34.18082,34.181 34.12784,34.128 c 16.25783,-19.823 16.31107,-48.486 0.053,-68.309 z" />
  <text
     sodipodi:linespacing="125%"
     style="font-size:76.74282074px;font-style:normal;font-variant:normal;font-weight:normal;font-stretch:normal;line-height:125%;letter-spacing:0px;word-spacing:0px;fill:#000000;fill-opacity:1;stroke:none;font-family:cmsy10;-inkscape-font-specification:cmsy10"
     xml:space="preserve"
     id="text5616-5-4"
     y="94.113281"
     x="107.23064"><tspan
       style="font-size:57.55711746px;font-style:normal;font-variant:normal;font-weight:normal;font-stretch:normal;font-family:Liberation Serif;-inkscape-font-specification:Liberation Serif"
       id="tspan5618-7-5"
       y="94.113281"
       x="107.23064">+</tspan></text>
  <path
     inkscape:connector-curvature="0"
     style="fill:#666699;stroke:none"
     id="path6459-4-5"
     d="m 79.181915,21.04 c -29.80119,0 -53.9598,24.158 -53.9598,53.959 0,29.802 24.15861,53.96 53.9598,53.96 4.93077,0 9.70142,-0.709 14.239382,-1.948 L 79.106967,73.65 92.746807,22.688 C 88.415457,21.568 83.863562,21.04 79.181915,21.04 z" />
  <g
     transform="translate(-9.9999932,393.595)"
     id="layer3"
     style="display:none">
    <path
       d="m 100.46104,112.02613 c 4.4686,29.57439 10.85708,72.70125 17.31558,72.70125 6.24236,0 4.78514,-35.74744 12.12524,-35.74744 8.34831,0 10.38451,70.71848 22.94444,70.71848 12.55993,0 12.5768,-59.94629 21.74405,-59.94629 6.55626,0 8.42798,16.9047 13.3043,16.9047 5.72742,0 6.16907,-39.17908 7.64665,-64.6307"
       id="path6461-2"
       style="fill:none;stroke:#4e9a06;stroke-width:2;stroke-linecap:butt;stroke-linejoin:miter;stroke-miterlimit:4;stroke-opacity:1;stroke-dasharray:none;marker-start:none;display:inline"
       inkscape:connector-curvature="0" />
    <path
       d="m 70.95695,30 c -12.42641,0 -22.5,10.07359 -22.5,22.499999 0,12.42641 10.07359,22.5 22.5,22.5 6.2132,0 11.83455,-2.52205 15.90625,-6.59375 L 70.95695,52.499999 86.8632,36.59375 C 82.7915,32.52205 77.17015,30 70.95695,30 z M 93.2382,49.312499 c 0.0495,0.34659 0.0917,0.68309 0.125,1.03125 -0.0328,-0.34594 -0.0768,-0.69005 -0.125,-1.03125 z m 0.125,5.34375 c -0.0333,0.34816 -0.0755,0.68466 -0.125,1.03125 0.0482,-0.3412 0.0922,-0.68531 0.125,-1.03125 z m -0.3125,2.125 c -0.0686,0.35456 -0.13294,0.71094 -0.21875,1.0625 0.0854,-0.3504 0.14999,-0.70589 0.21875,-1.0625 z"
       id="path6459-7-4"
       style="fill:#4e9a06;stroke:none"
       inkscape:connector-curvature="0" />
  </g>
  <path
     inkscape:connector-curvature="0"
     style="fill:none;stroke:#cc6600;stroke-width:3.9313271;stroke-linecap:butt;stroke-linejoin:miter;stroke-miterlimit:4;stroke-opacity:1;stroke-dasharray:none"
     id="path6461-6"
     d="m 242.84761,252.657 c 3.27123,71.336 12.4431,308.946 33.41628,308.946 20.97317,0 30.01967,-239.468 33.41628,-308.946" />
  <path
     inkscape:connector-curvature="0"
     style="fill:#ffffff;fill-opacity:1;stroke:none"
     id="rect5185-3-9-5"
     d="m 73.449294,254.966 327.962436,0 0,2.308 -327.962436,0 z m 0,5.301 327.962436,0 0,3.462 -327.962436,0 z m 0,6.241 327.962436,0 0,4.617 -327.962436,0 z" />
</svg>
